<svg aria-hidden="true" style="position: absolute; width: 0; height: 0; overflow: hidden;" version="1.1" xmlns="http://www.w3.org/2000/svg" xmlns:xlink="http://www.w3.org/1999/xlink">
<defs>

<symbol id="icon-Search" viewBox="0 0 32 32">
<path fill="none" stroke="#f1a900" style="stroke: var(--color1, #f1a900)" stroke-linejoin="round" stroke-linecap="round" stroke-miterlimit="4" stroke-width="2" d="M4.327 15.689c0 6.619 5.366 11.985 11.985 11.985s11.985-5.366 11.985-11.985c0-6.619-5.366-11.985-11.985-11.985s-11.985 5.366-11.985 11.985z"></path>
<path fill="none" stroke="#f1a900" style="stroke: var(--color1, #f1a900)" stroke-linejoin="round" stroke-linecap="round" stroke-miterlimit="4" stroke-width="2" d="M7.976 24.647l-4.699 4.687"></path>
</symbol>

<symbol id="icon-shipment-1" viewBox="0 0 32 32">
<path fill="#ffd036" style="fill: var(--color2, #ffd036)" d="M28 20c0 6.627-5.373 12-12 12s-12-5.373-12-12c0-6.627 5.373-12 12-12s12 5.373 12 12z"></path>
<path fill="#455a64" style="fill: var(--color3, #455a64)" d="M7.333 21.333c-0.135 0-0.269-0.040-0.388-0.124-0.3-0.213-0.368-0.631-0.155-0.929l6.667-9.333c0.215-0.301 0.631-0.368 0.931-0.155s0.368 0.631 0.155 0.929l-6.667 9.333c-0.129 0.181-0.336 0.279-0.543 0.279z"></path>
<path fill="#455a64" style="fill: var(--color3, #455a64)" d="M20.667 28h-9.4c-0.368 0-0.667-0.299-0.667-0.667s0.299-0.667 0.667-0.667h8.733v-18c0-0.368-0.3-0.667-0.667-0.667h-17.333c-0.367 0-0.667 0.299-0.667 0.667v17.333c0 0.368 0.3 0.667 0.667 0.667h2.733c0.368 0 0.667 0.299 0.667 0.667s-0.299 0.667-0.667 0.667h-2.733c-1.103 0-2-0.897-2-2v-17.333c0-1.103 0.897-2 2-2h17.333c1.103 0 2 0.897 2 2v18.667c0 0.368-0.299 0.667-0.667 0.667z"></path>
<path fill="#455a64" style="fill: var(--color3, #455a64)" d="M30 28h-1.733c-0.368 0-0.667-0.299-0.667-0.667s0.299-0.667 0.667-0.667h1.733c0.367 0 0.667-0.299 0.667-0.667v-2.667c0-4.044-3.291-7.333-7.333-7.333h-2v10.667h0.4c0.368 0 0.667 0.299 0.667 0.667s-0.299 0.667-0.667 0.667h-1.067c-0.368 0-0.667-0.299-0.667-0.667v-12c0-0.368 0.299-0.667 0.667-0.667h2.667c4.779 0 8.667 3.888 8.667 8.667v2.667c0 1.103-0.897 2-2 2z"></path>
<path fill="#455a64" style="fill: var(--color3, #455a64)" d="M25 32c-2.205 0-4-1.795-4-4s1.795-4 4-4c2.205 0 4 1.795 4 4s-1.795 4-4 4zM25 25.333c-1.471 0-2.667 1.196-2.667 2.667s1.196 2.667 2.667 2.667c1.471 0 2.667-1.196 2.667-2.667s-1.196-2.667-2.667-2.667z"></path>
<path fill="#455a64" style="fill: var(--color3, #455a64)" d="M8 32c-2.205 0-4-1.795-4-4s1.795-4 4-4c2.205 0 4 1.795 4 4s-1.795 4-4 4zM8 25.333c-1.471 0-2.667 1.196-2.667 2.667s1.196 2.667 2.667 2.667c1.471 0 2.667-1.196 2.667-2.667s-1.196-2.667-2.667-2.667z"></path>
<path fill="#455a64" style="fill: var(--color3, #455a64)" d="M4.667 17.333c-0.139 0-0.28-0.044-0.4-0.133-0.295-0.221-0.355-0.639-0.135-0.933l4-5.333c0.223-0.296 0.64-0.353 0.933-0.133 0.296 0.221 0.355 0.639 0.135 0.933l-4 5.333c-0.131 0.175-0.332 0.267-0.533 0.267z"></path>
<path fill="#455a64" style="fill: var(--color3, #455a64)" d="M12.667 21.333c-0.139 0-0.28-0.044-0.4-0.133-0.295-0.221-0.355-0.639-0.135-0.933l4-5.333c0.223-0.295 0.641-0.353 0.933-0.133 0.295 0.221 0.355 0.639 0.135 0.933l-4 5.333c-0.131 0.175-0.332 0.267-0.533 0.267z"></path>
</symbol>

<symbol id="icon-discount-voucher-1" viewBox="0 0 32 32">
<path fill="#ffd036" style="fill: var(--color1, #ffd036)" d="M26.4 13.6c0 6.627-5.373 12-12 12s-12-5.373-12-12c0-6.627 5.373-12 12-12s12 5.373 12 12z"></path>
<path fill="#455a64" style="fill: var(--color2, #455a64)" d="M21.333 22.667c-1.471 0-2.667-1.196-2.667-2.667s1.196-2.667 2.667-2.667c1.471 0 2.667 1.196 2.667 2.667s-1.196 2.667-2.667 2.667zM21.333 18.667c-0.735 0-1.333 0.599-1.333 1.333s0.599 1.333 1.333 1.333c0.735 0 1.333-0.599 1.333-1.333s-0.599-1.333-1.333-1.333z"></path>
<path fill="#455a64" style="fill: var(--color2, #455a64)" d="M29.333 30.667c-1.471 0-2.667-1.196-2.667-2.667s1.196-2.667 2.667-2.667c1.471 0 2.667 1.196 2.667 2.667s-1.196 2.667-2.667 2.667zM29.333 26.667c-0.735 0-1.333 0.599-1.333 1.333s0.599 1.333 1.333 1.333c0.735 0 1.333-0.599 1.333-1.333s-0.599-1.333-1.333-1.333z"></path>
<path fill="#455a64" style="fill: var(--color2, #455a64)" d="M20.667 30.667c-0.143 0-0.287-0.045-0.409-0.14-0.291-0.225-0.343-0.644-0.116-0.936l9.333-12c0.227-0.289 0.645-0.343 0.936-0.116s0.343 0.644 0.116 0.936l-9.333 12c-0.132 0.168-0.329 0.256-0.527 0.256z"></path>
<path fill="#455a64" style="fill: var(--color2, #455a64)" d="M15.333 21.333h-12c-1.837 0-3.333-1.496-3.333-3.333v-13.333c0-1.837 1.496-3.333 3.333-3.333h22.667c1.837 0 3.333 1.496 3.333 3.333v9.333c0 0.368-0.299 0.667-0.667 0.667s-0.667-0.299-0.667-0.667v-9.333c0-1.103-0.897-2-2-2h-22.667c-1.103 0-2 0.897-2 2v13.333c0 1.103 0.897 2 2 2h12c0.368 0 0.667 0.299 0.667 0.667s-0.299 0.667-0.667 0.667z"></path>
<path fill="#455a64" style="fill: var(--color2, #455a64)" d="M28.667 6.667h-28c-0.368 0-0.667-0.299-0.667-0.667s0.299-0.667 0.667-0.667h28c0.368 0 0.667 0.299 0.667 0.667s-0.299 0.667-0.667 0.667z"></path>
<path fill="#455a64" style="fill: var(--color2, #455a64)" d="M28.667 10.667h-28c-0.368 0-0.667-0.299-0.667-0.667s0.299-0.667 0.667-0.667h28c0.368 0 0.667 0.299 0.667 0.667s-0.299 0.667-0.667 0.667z"></path>
</symbol>

<symbol id="icon-boxes-1" viewBox="0 0 32 32">
<path fill="#ffd036" style="fill: var(--color2, #ffd036)" d="M27.2 20c0 6.627-5.373 12-12 12s-12-5.373-12-12c0-6.627 5.373-12 12-12s12 5.373 12 12z"></path>
<path fill="#455a64" style="fill: var(--color3, #455a64)" d="M30 32h-14.667c-0.368 0-0.667-0.299-0.667-0.667v-14.667c0-0.368 0.299-0.667 0.667-0.667h14.667c0.368 0 0.667 0.299 0.667 0.667v14.667c0 0.368-0.299 0.667-0.667 0.667zM16 30.667h13.333v-13.333h-13.333v13.333z"></path>
<path fill="#455a64" style="fill: var(--color3, #455a64)" d="M22.667 17.333h-14.667c-0.368 0-0.667-0.299-0.667-0.667v-14.667c0-0.368 0.299-0.667 0.667-0.667h14.667c0.368 0 0.667 0.299 0.667 0.667v14.667c0 0.368-0.299 0.667-0.667 0.667zM8.667 16h13.333v-13.333h-13.333v13.333z"></path>
<path fill="#455a64" style="fill: var(--color3, #455a64)" d="M17.333 8h-4c-0.368 0-0.667-0.299-0.667-0.667v-5.333c0-0.368 0.299-0.667 0.667-0.667h4c0.368 0 0.667 0.299 0.667 0.667v5.333c0 0.368-0.299 0.667-0.667 0.667zM14 6.667h2.667v-4h-2.667v4z"></path>
<path fill="#455a64" style="fill: var(--color3, #455a64)" d="M24.667 22.667h-4c-0.368 0-0.667-0.299-0.667-0.667v-5.333c0-0.368 0.299-0.667 0.667-0.667h4c0.368 0 0.667 0.299 0.667 0.667v5.333c0 0.368-0.299 0.667-0.667 0.667zM21.333 21.333h2.667v-4h-2.667v4z"></path>
<path fill="#455a64" style="fill: var(--color3, #455a64)" d="M15.333 32h-14.667c-0.368 0-0.667-0.299-0.667-0.667v-14.667c0-0.368 0.299-0.667 0.667-0.667h14.667c0.368 0 0.667 0.299 0.667 0.667v14.667c0 0.368-0.299 0.667-0.667 0.667zM1.333 30.667h13.333v-13.333h-13.333v13.333z"></path>
<path fill="#455a64" style="fill: var(--color3, #455a64)" d="M10 22.667h-4c-0.368 0-0.667-0.299-0.667-0.667v-5.333c0-0.368 0.299-0.667 0.667-0.667h4c0.368 0 0.667 0.299 0.667 0.667v5.333c0 0.368-0.299 0.667-0.667 0.667zM6.667 21.333h2.667v-4h-2.667v4z"></path>
</symbol>

<symbol id="icon-diploma-1" viewBox="0 0 32 32">
<path fill="#ffd036" style="fill: var(--color2, #ffd036)" d="M28 18.4c0 6.627-5.373 12-12 12s-12-5.373-12-12c0-6.627 5.373-12 12-12s12 5.373 12 12z"></path>
<path fill="#455a64" style="fill: var(--color3, #455a64)" d="M27.13 16.696h-22.261c-0.384 0-0.696 0.312-0.696 0.696s0.312 0.696 0.696 0.696h22.261c0.384 0 0.696-0.312 0.696-0.696s-0.312-0.696-0.696-0.696z"></path>
<path fill="#455a64" style="fill: var(--color3, #455a64)" d="M31.304 5.565h-11.897c0.046-0.225 0.071-0.458 0.071-0.696 0-1.917-1.561-3.478-3.478-3.478s-3.478 1.561-3.478 3.478c0 0.238 0.025 0.47 0.071 0.696h-11.897c-0.384-0-0.696 0.312-0.696 0.696v23.652c0 0.384 0.312 0.696 0.696 0.696h30.609c0.384 0 0.696-0.312 0.696-0.696v-23.652c0-0.384-0.312-0.696-0.696-0.696zM16 2.783c1.151 0 2.087 0.936 2.087 2.087 0 0.38-0.11 0.732-0.288 1.039 0 0.001-0.001 0.001-0.003 0.003-0.182 0.313-0.434 0.562-0.726 0.74-0.032 0.019-0.067 0.036-0.1 0.054-0.11 0.060-0.227 0.106-0.346 0.145-0.044 0.014-0.086 0.031-0.132 0.040-0.159 0.039-0.321 0.065-0.491 0.065-0.168 0-0.333-0.026-0.491-0.064-0.046-0.011-0.090-0.028-0.136-0.042-0.117-0.038-0.231-0.083-0.34-0.142-0.035-0.019-0.071-0.038-0.104-0.058-0.291-0.178-0.543-0.426-0.725-0.739 0-0.001-0.001-0.001-0.003-0.003-0.178-0.307-0.288-0.659-0.288-1.039 0-1.151 0.936-2.087 2.087-2.087zM17.742 11.918l-1.43-0.715c-0.195-0.097-0.426-0.097-0.622 0l-1.43 0.715 0.918-3.674c0.018 0.004 0.038 0.008 0.056 0.012 0.248 0.056 0.502 0.092 0.767 0.092s0.519-0.035 0.767-0.092c0.019-0.004 0.038-0.008 0.057-0.012l0.918 3.674zM1.391 29.217v-22.261h11.84c0.010 0.013 0.022 0.021 0.032 0.033 0.143 0.185 0.303 0.352 0.48 0.504 0.033 0.029 0.067 0.056 0.102 0.083 0.018 0.015 0.036 0.031 0.054 0.044l-1.356 5.426c-0.065 0.263 0.028 0.541 0.239 0.711 0.214 0.171 0.505 0.199 0.747 0.079l2.471-1.234 2.471 1.235c0.099 0.049 0.206 0.074 0.312 0.074 0.154 0 0.309-0.053 0.437-0.153 0.211-0.17 0.305-0.448 0.239-0.711l-1.357-5.428c0.018-0.014 0.035-0.029 0.053-0.043 0.035-0.028 0.068-0.056 0.102-0.083 0.177-0.152 0.337-0.32 0.48-0.504 0.010-0.013 0.022-0.021 0.032-0.033h11.84v22.259h-29.217z"></path>
<path fill="#455a64" style="fill: var(--color3, #455a64)" d="M24.348 20.87h-16.696c-0.384 0-0.696 0.312-0.696 0.696s0.312 0.696 0.696 0.696h16.696c0.384 0 0.696-0.312 0.696-0.696s-0.312-0.696-0.696-0.696z"></path>
<path fill="#455a64" style="fill: var(--color3, #455a64)" d="M20.174 25.043h-8.348c-0.384 0-0.696 0.312-0.696 0.696s0.312 0.696 0.696 0.696h8.348c0.384 0 0.696-0.312 0.696-0.696s-0.312-0.696-0.696-0.696z"></path>
</symbol>

<symbol id="icon-Star" viewBox="0 0 32 32">
<path fill="#f1a900" style="fill: var(--color1, #f1a900)" d="M23.891 19.093c-0.345 0.335-0.504 0.819-0.425 1.293l1.185 6.56c0.1 0.556-0.135 1.119-0.6 1.44-0.456 0.333-1.063 0.373-1.56 0.107l-5.905-3.080c-0.205-0.109-0.433-0.168-0.667-0.175h-0.361c-0.125 0.019-0.248 0.059-0.36 0.12l-5.907 3.095c-0.292 0.147-0.623 0.199-0.947 0.147-0.789-0.149-1.316-0.901-1.187-1.695l1.187-6.56c0.079-0.479-0.080-0.965-0.425-1.305l-4.815-4.667c-0.403-0.391-0.543-0.977-0.359-1.507 0.179-0.528 0.635-0.913 1.185-1l6.627-0.961c0.504-0.052 0.947-0.359 1.173-0.812l2.92-5.987c0.069-0.133 0.159-0.256 0.267-0.36l0.12-0.093c0.063-0.069 0.135-0.127 0.215-0.173l0.145-0.053 0.227-0.093h0.561c0.501 0.052 0.943 0.352 1.173 0.8l2.959 5.96c0.213 0.436 0.628 0.739 1.107 0.812l6.627 0.961c0.56 0.080 1.028 0.467 1.213 1 0.175 0.535 0.024 1.121-0.387 1.507l-4.987 4.72z"></path>
</symbol>

<symbol id="icon-Buy" viewBox="0 0 32 32">
<path fill="#f1a900" style="fill: var(--color1, #f1a900)" d="M26.902 7.903c0.813 0 1.346 0.286 1.879 0.912s0.626 1.524 0.506 2.339l-1.266 8.926c-0.24 1.716-1.679 2.98-3.371 2.98h-14.535c-1.772 0-3.237-1.387-3.384-3.183l-1.226-14.833-2.012-0.354c-0.533-0.095-0.906-0.626-0.813-1.17 0.093-0.557 0.613-0.925 1.159-0.842l3.178 0.489c0.453 0.083 0.786 0.463 0.826 0.925l0.253 3.048c0.040 0.437 0.386 0.763 0.813 0.763h17.993zM9.902 25.211c-1.119 0-2.025 0.925-2.025 2.068 0 1.129 0.906 2.055 2.025 2.055 1.106 0 2.012-0.925 2.012-2.055 0-1.143-0.906-2.068-2.012-2.068zM24.89 25.211c-1.119 0-2.025 0.925-2.025 2.068 0 1.129 0.906 2.055 2.025 2.055 1.106 0 2.012-0.925 2.012-2.055 0-1.143-0.906-2.068-2.012-2.068z"></path>
</symbol>

<symbol id="icon-Category" viewBox="0 0 32 32">
<path d="M4.948 1.185h5.007c2.089 0 3.763 1.704 3.763 3.794v5.050c0 2.104-1.674 3.793-3.763 3.793h-5.007c-2.074 0-3.763-1.689-3.763-3.793v-5.050c0-2.090 1.689-3.794 3.763-3.794zM4.948 18.177h5.007c2.089 0 3.763 1.69 3.763 3.794v5.050c0 2.089-1.674 3.793-3.763 3.793h-5.007c-2.074 0-3.763-1.704-3.763-3.793v-5.050c0-2.104 1.689-3.794 3.763-3.794zM27.052 1.185h-5.007c-2.089 0-3.763 1.704-3.763 3.794v5.050c0 2.104 1.674 3.793 3.763 3.793h5.007c2.074 0 3.763-1.689 3.763-3.793v-5.050c0-2.090-1.689-3.794-3.763-3.794zM22.044 18.177h5.007c2.074 0 3.763 1.69 3.763 3.794v5.050c0 2.089-1.689 3.793-3.763 3.793h-5.007c-2.089 0-3.763-1.704-3.763-3.793v-5.050c0-2.104 1.674-3.794 3.763-3.794z"></path>
</symbol>

<symbol id="icon-Arrow-1" viewBox="0 0 202 32">
<path fill="#455a64" style="fill: var(--color1, #455a64)" d="M201.414 17.414c0.782-0.781 0.782-2.047 0-2.828l-12.728-12.728c-0.781-0.781-2.047-0.781-2.828 0s-0.781 2.047 0 2.828l11.314 11.314-11.314 11.314c-0.781 0.781-0.781 2.047 0 2.828s2.047 0.781 2.828 0l12.728-12.728zM0 18l200 0v-4l-200-0v4z"></path>
</symbol>

<symbol id="icon-X" viewBox="0 0 32 32">
<path d="M18.83 16l12.584-12.584c0.782-0.781 0.782-2.049 0-2.83s-2.048-0.782-2.83 0l-12.584 12.584-12.584-12.584c-0.782-0.782-2.048-0.782-2.83 0s-0.782 2.049 0 2.83l12.584 12.584-12.584 12.584c-0.782 0.781-0.782 2.048 0 2.83 0.391 0.39 0.903 0.586 1.415 0.586s1.024-0.195 1.415-0.586l12.584-12.584 12.584 12.584c0.391 0.391 0.903 0.586 1.415 0.586s1.024-0.195 1.415-0.586c0.782-0.781 0.782-2.049 0-2.83l-12.584-12.583z"></path>
</symbol>

<symbol id="icon-menu" viewBox="0 0 46 32">
<path stroke-linejoin="miter" stroke-linecap="round" stroke-miterlimit="4" stroke-width="3.4286" d="M1.714 2.857h42.286"></path>
<path stroke-linejoin="miter" stroke-linecap="round" stroke-miterlimit="4" stroke-width="3.4286" d="M1.714 16.571h42.286"></path>
<path stroke-linejoin="miter" stroke-linecap="round" stroke-miterlimit="4" stroke-width="3.4286" d="M1.714 30.286h42.286"></path>
</symbol>

</defs>
</svg>


